<?xml version="1.0" encoding="utf-8"?>
<!-- Generator: Adobe Illustrator 17.1.0, SVG Export Plug-In . SVG Version: 6.00 Build 0)  -->
<!DOCTYPE svg PUBLIC "-//W3C//DTD SVG 1.1//EN" "http://www.w3.org/Graphics/SVG/1.1/DTD/svg11.dtd">
<svg version="1.1" id="Layer_1" xmlns="http://www.w3.org/2000/svg" xmlns:xlink="http://www.w3.org/1999/xlink" x="0px" y="0px"
	 viewBox="0 0 100 100" style="enable-background:new 0 0 100 100;" xml:space="preserve">
<style type="text/css">
	.st0{fill:#FFFFFF;}
	.st1{fill:none;stroke:#FFFFFF;stroke-width:3;stroke-miterlimit:10;}
	.st2{fill:#FFFFCC;}
	.st3{fill:none;stroke:#FFFFCC;stroke-width:3;stroke-miterlimit:10;}
</style>
<path id="Facebook_1_" class="st0" d="M42.5,32.6c0,1.4,0,7.8,0,7.8h-5.7V50h5.7v28.4h11.8V50h7.9c0,0,0.7-4.6,1.1-9.6c-1,0-9,0-9,0
	s0-5.6,0-6.5c0-1,1.3-2.3,2.6-2.3c1.3,0,3.9,0,6.4,0c0-1.3,0-5.8,0-10c-3.3,0-7.1,0-8.7,0C42.2,21.6,42.5,31.2,42.5,32.6z"/>
<circle class="st1" cx="50" cy="50" r="47.7"/>
</svg>
