<?xml version="1.0" encoding="utf-8"?>
<!-- Generator: Adobe Illustrator 17.1.0, SVG Export Plug-In . SVG Version: 6.00 Build 0)  -->
<!DOCTYPE svg PUBLIC "-//W3C//DTD SVG 1.1//EN" "http://www.w3.org/Graphics/SVG/1.1/DTD/svg11.dtd">
<svg version="1.1" id="Layer_1" xmlns="http://www.w3.org/2000/svg" xmlns:xlink="http://www.w3.org/1999/xlink" x="0px" y="0px"
	 viewBox="0 0 100 100" style="enable-background:new 0 0 100 100;" xml:space="preserve">
<style type="text/css">
	.st0{fill:#FFFFFF;}
	.st1{fill:none;stroke:#FFFFFF;stroke-width:3;stroke-miterlimit:10;}
	.st2{fill:#FFFFCC;}
	.st3{fill:none;stroke:#FFFFCC;stroke-width:3;stroke-miterlimit:10;}
</style>
<path id="Twitter_1_" class="st0" d="M77.7,32.8c-2,0.9-4.2,1.5-6.5,1.8c2.3-1.4,4.1-3.6,5-6.3c-2.2,1.3-4.6,2.2-7.2,2.8
	c-2.1-2.2-5-3.6-8.3-3.6c-6.3,0-11.4,5.1-11.4,11.4c0,0.9,0.1,1.8,0.3,2.6c-9.4-0.5-17.8-5-23.4-11.9c-1,1.7-1.5,3.6-1.5,5.7
	c0,3.9,2,7.4,5.1,9.5c-1.9-0.1-3.6-0.6-5.1-1.4c0,0,0,0.1,0,0.1c0,5.5,3.9,10.1,9.1,11.1c-1,0.3-2,0.4-3,0.4c-0.7,0-1.4-0.1-2.1-0.2
	c1.4,4.5,5.6,7.8,10.6,7.9c-3.9,3-8.8,4.9-14.1,4.9c-0.9,0-1.8-0.1-2.7-0.2c5,3.2,11,5.1,17.4,5.1c20.9,0,32.3-17.3,32.3-32.3
	c0-0.5,0-1,0-1.5C74.2,37.1,76.2,35.1,77.7,32.8z"/>
<circle class="st1" cx="50" cy="50" r="47.7"/>
</svg>
