<svg xmlns="http://www.w3.org/2000/svg" viewBox="0 0 100 100" enable-background="new 0 0 100 100"><style type="text/css">.st0{fill:#FFFFFF;} .st1{fill:none;stroke:#FFFFFF;stroke-width:3;stroke-miterlimit:10;} .st2{fill:#FFFFCC;} .st3{fill:none;stroke:#FFFFCC;stroke-width:3;stroke-miterlimit:10;}</style><path id="Twitter_1_" class="st0" d="M77.7 32.8c-2 .9-4.2 1.5-6.5 1.8 2.3-1.4 4.1-3.6 5-6.3-2.2 1.3-4.6 2.2-7.2 2.8-2.1-2.2-5-3.6-8.3-3.6-6.3 0-11.4 5.1-11.4 11.4 0 .9.1 1.8.3 2.6-9.4-.5-17.8-5-23.4-11.9-1 1.7-1.5 3.6-1.5 5.7 0 3.9 2 7.4 5.1 9.5-1.9-.1-3.6-.6-5.1-1.4v.1c0 5.5 3.9 10.1 9.1 11.1-1 .3-2 .4-3 .4-.7 0-1.4-.1-2.1-.2 1.4 4.5 5.6 7.8 10.6 7.9-3.9 3-8.8 4.9-14.1 4.9-.9 0-1.8-.1-2.7-.2 5 3.2 11 5.1 17.4 5.1 20.9 0 32.3-17.3 32.3-32.3v-1.5c2-1.6 4-3.6 5.5-5.9z"/><circle class="st1" cx="50" cy="50" r="47.7"/></svg>